<svg version="1.1" viewBox="0.0 0.0 600.0 371.0" fill="none" stroke="none" stroke-linecap="square" stroke-miterlimit="10" width="600" height="371" xmlns:xlink="http://www.w3.org/1999/xlink" xmlns="http://www.w3.org/2000/svg"><path fill="#ffffff" d="M0 0L600.0 0L600.0 371.0L0 371.0L0 0Z" fill-rule="nonzero"/><path stroke="#333333" stroke-width="1.0" stroke-linecap="butt" d="M45.5 331.5L554.5 331.5" fill-rule="nonzero"/><path stroke="#cccccc" stroke-width="1.0" stroke-linecap="butt" d="M45.5 250.5L554.5 250.5" fill-rule="nonzero"/><path stroke="#cccccc" stroke-width="1.0" stroke-linecap="butt" d="M45.5 170.5L554.5 170.5" fill-rule="nonzero"/><path stroke="#cccccc" stroke-width="1.0" stroke-linecap="butt" d="M45.5 89.5L554.5 89.5" fill-rule="nonzero"/><clipPath id="id_0"><path d="M45.55 89.78333L554.45 89.78333L554.45 331.45L45.55 331.45L45.55 89.78333Z" clip-rule="nonzero"/></clipPath><path stroke="#000000" stroke-width="2.0" stroke-linecap="butt" stroke-opacity="0.0" clip-path="url(#id_0)" d="M191.0 331.0L123.0 331.0L123.0 95.0C123.0 93.89543 123.89543 93.0 125.0 93.0L189.0 93.0C190.10457 93.0 191.0 93.89543 191.0 95.0Z" fill-rule="nonzero"/><path fill="#4285f4" clip-path="url(#id_0)" d="M191.0 331.0L123.0 331.0L123.0 95.0C123.0 93.89543 123.89543 93.0 125.0 93.0L189.0 93.0C190.10457 93.0 191.0 93.89543 191.0 95.0Z" fill-rule="nonzero"/><path stroke="#000000" stroke-width="2.0" stroke-linecap="butt" stroke-opacity="0.0" clip-path="url(#id_0)" d="M407.0 331.0L339.0 331.0L339.0 313.0C339.0 311.89542 339.89542 311.0 341.0 311.0L405.0 311.0C406.10458 311.0 407.0 311.89542 407.0 313.0Z" fill-rule="nonzero"/><path fill="#4285f4" clip-path="url(#id_0)" d="M407.0 331.0L339.0 331.0L339.0 313.0C339.0 311.89542 339.89542 311.0 341.0 311.0L405.0 311.0C406.10458 311.0 407.0 311.89542 407.0 313.0Z" fill-rule="nonzero"/><path stroke="#000000" stroke-width="2.0" stroke-linecap="butt" stroke-opacity="0.0" clip-path="url(#id_0)" d="M261.0 331.0L193.0 331.0L193.0 330.5C193.0 330.22385 193.22386 330.0 193.5 330.0L260.5 330.0C260.77615 330.0 261.0 330.22385 261.0 330.5Z" fill-rule="nonzero"/><path fill="#ea4335" clip-path="url(#id_0)" d="M261.0 331.0L193.0 331.0L193.0 330.5C193.0 330.22385 193.22386 330.0 193.5 330.0L260.5 330.0C260.77615 330.0 261.0 330.22385 261.0 330.5Z" fill-rule="nonzero"/><path stroke="#000000" stroke-width="2.0" stroke-linecap="butt" stroke-opacity="0.0" clip-path="url(#id_0)" d="M477.0 331.0L409.0 331.0L409.0 116.0C409.0 114.89543 409.89542 114.0 411.0 114.0L475.0 114.0C476.10458 114.0 477.0 114.89543 477.0 116.0Z" fill-rule="nonzero"/><path fill="#ea4335" clip-path="url(#id_0)" d="M477.0 331.0L409.0 331.0L409.0 116.0C409.0 114.89543 409.89542 114.0 411.0 114.0L475.0 114.0C476.10458 114.0 477.0 114.89543 477.0 116.0Z" fill-rule="nonzero"/><path stroke="#ffffff" stroke-width="3.0" stroke-linejoin="round" stroke-linecap="round" d="M147.70312 73.724304L148.14062 69.474304L152.51562 69.474304L152.51562 70.474304L149.0625 70.474304L148.79688 72.80243Q149.4375 72.42743 150.23438 72.42743Q151.39062 72.42743 152.07812 73.20868Q152.76562 73.974304 152.76562 75.286804Q152.76562 76.599304 152.04688 77.36493Q151.34375 78.130554 150.0625 78.130554Q148.9375 78.130554 148.21875 77.505554Q147.5 76.86493 147.40625 75.755554L148.42188 75.755554Q148.53125 76.48993 148.95312 76.86493Q149.375 77.23993 150.0625 77.23993Q150.8125 77.23993 151.25 76.724304Q151.6875 76.20868 151.6875 75.30243Q151.6875 74.443054 151.21875 73.92743Q150.75 73.411804 149.96875 73.411804Q149.26562 73.411804 148.85938 73.70868L148.57812 73.943054L147.70312 73.724304ZM158.35938 74.255554Q158.03125 74.661804 157.54688 74.911804Q157.07812 75.14618 156.51562 75.14618Q155.78125 75.14618 155.23438 74.786804Q154.6875 74.42743 154.39062 73.77118Q154.09375 73.099304 154.09375 72.30243Q154.09375 71.45868 154.40625 70.77118Q154.73438 70.08368 155.32812 69.724304Q155.9375 69.349304 156.73438 69.349304Q158.0 69.349304 158.71875 70.30243Q159.45312 71.255554 159.45312 72.880554L159.45312 73.193054Q159.45312 75.693054 158.46875 76.83368Q157.48438 77.974304 155.5 78.005554L155.28125 78.005554L155.28125 77.099304L155.51562 77.099304Q156.85938 77.068054 157.57812 76.39618Q158.29688 75.724304 158.35938 74.255554ZM156.6875 74.255554Q157.23438 74.255554 157.6875 73.92743Q158.15625 73.58368 158.375 73.099304L158.375 72.661804Q158.375 71.599304 157.90625 70.92743Q157.4375 70.255554 156.73438 70.255554Q156.01562 70.255554 155.57812 70.80243Q155.15625 71.349304 155.15625 72.255554Q155.15625 73.130554 155.5625 73.693054Q155.98438 74.255554 156.6875 74.255554ZM166.79688 78.005554L161.20312 78.005554L161.20312 77.224304L164.15625 73.943054Q164.8125 73.193054 165.0625 72.73993Q165.3125 72.27118 165.3125 71.77118Q165.3125 71.099304 164.90625 70.67743Q164.51562 70.23993 163.82812 70.23993Q163.03125 70.23993 162.57812 70.70868Q162.125 71.161804 162.125 71.98993L161.04688 71.98993Q161.04688 70.80243 161.79688 70.08368Q162.5625 69.349304 163.82812 69.349304Q165.03125 69.349304 165.71875 69.974304Q166.40625 70.599304 166.40625 71.64618Q166.40625 72.89618 164.79688 74.64618L162.51562 77.11493L166.79688 77.11493L166.79688 78.005554Z" fill-rule="nonzero"/><path fill="#4285f4" d="M147.70312 73.724304L148.14062 69.474304L152.51562 69.474304L152.51562 70.474304L149.0625 70.474304L148.79688 72.80243Q149.4375 72.42743 150.23438 72.42743Q151.39062 72.42743 152.07812 73.20868Q152.76562 73.974304 152.76562 75.286804Q152.76562 76.599304 152.04688 77.36493Q151.34375 78.130554 150.0625 78.130554Q148.9375 78.130554 148.21875 77.505554Q147.5 76.86493 147.40625 75.755554L148.42188 75.755554Q148.53125 76.48993 148.95312 76.86493Q149.375 77.23993 150.0625 77.23993Q150.8125 77.23993 151.25 76.724304Q151.6875 76.20868 151.6875 75.30243Q151.6875 74.443054 151.21875 73.92743Q150.75 73.411804 149.96875 73.411804Q149.26562 73.411804 148.85938 73.70868L148.57812 73.943054L147.70312 73.724304ZM158.35938 74.255554Q158.03125 74.661804 157.54688 74.911804Q157.07812 75.14618 156.51562 75.14618Q155.78125 75.14618 155.23438 74.786804Q154.6875 74.42743 154.39062 73.77118Q154.09375 73.099304 154.09375 72.30243Q154.09375 71.45868 154.40625 70.77118Q154.73438 70.08368 155.32812 69.724304Q155.9375 69.349304 156.73438 69.349304Q158.0 69.349304 158.71875 70.30243Q159.45312 71.255554 159.45312 72.880554L159.45312 73.193054Q159.45312 75.693054 158.46875 76.83368Q157.48438 77.974304 155.5 78.005554L155.28125 78.005554L155.28125 77.099304L155.51562 77.099304Q156.85938 77.068054 157.57812 76.39618Q158.29688 75.724304 158.35938 74.255554ZM156.6875 74.255554Q157.23438 74.255554 157.6875 73.92743Q158.15625 73.58368 158.375 73.099304L158.375 72.661804Q158.375 71.599304 157.90625 70.92743Q157.4375 70.255554 156.73438 70.255554Q156.01562 70.255554 155.57812 70.80243Q155.15625 71.349304 155.15625 72.255554Q155.15625 73.130554 155.5625 73.693054Q155.98438 74.255554 156.6875 74.255554ZM166.79688 78.005554L161.20312 78.005554L161.20312 77.224304L164.15625 73.943054Q164.8125 73.193054 165.0625 72.73993Q165.3125 72.27118 165.3125 71.77118Q165.3125 71.099304 164.90625 70.67743Q164.51562 70.23993 163.82812 70.23993Q163.03125 70.23993 162.57812 70.70868Q162.125 71.161804 162.125 71.98993L161.04688 71.98993Q161.04688 70.80243 161.79688 70.08368Q162.5625 69.349304 163.82812 69.349304Q165.03125 69.349304 165.71875 69.974304Q166.40625 70.599304 166.40625 71.64618Q166.40625 72.89618 164.79688 74.64618L162.51562 77.11493L166.79688 77.11493L166.79688 78.005554Z" fill-rule="nonzero"/><path stroke="#ffffff" stroke-width="3.0" stroke-linejoin="round" stroke-linecap="round" d="M367.20312 291.2243L367.64062 286.9743L372.01562 286.9743L372.01562 287.9743L368.5625 287.9743L368.29688 290.30243Q368.9375 289.92743 369.73438 289.92743Q370.89062 289.92743 371.57812 290.70868Q372.26562 291.4743 372.26562 292.7868Q372.26562 294.0993 371.54688 294.86493Q370.84375 295.63055 369.5625 295.63055Q368.4375 295.63055 367.71875 295.00555Q367.0 294.36493 366.90625 293.25555L367.92188 293.25555Q368.03125 293.98993 368.45312 294.36493Q368.875 294.73993 369.5625 294.73993Q370.3125 294.73993 370.75 294.2243Q371.1875 293.70868 371.1875 292.80243Q371.1875 291.94305 370.71875 291.42743Q370.25 290.9118 369.46875 290.9118Q368.76562 290.9118 368.35938 291.20868L368.07812 291.44305L367.20312 291.2243ZM379.29688 295.50555L373.70312 295.50555L373.70312 294.7243L376.65625 291.44305Q377.3125 290.69305 377.5625 290.23993Q377.8125 289.77118 377.8125 289.27118Q377.8125 288.5993 377.40625 288.17743Q377.01562 287.73993 376.32812 287.73993Q375.53125 287.73993 375.07812 288.20868Q374.625 288.6618 374.625 289.48993L373.54688 289.48993Q373.54688 288.30243 374.29688 287.58368Q375.0625 286.8493 376.32812 286.8493Q377.53125 286.8493 378.21875 287.4743Q378.90625 288.0993 378.90625 289.14618Q378.90625 290.39618 377.29688 292.14618L375.01562 294.61493L379.29688 294.61493L379.29688 295.50555Z" fill-rule="nonzero"/><path fill="#4285f4" d="M367.20312 291.2243L367.64062 286.9743L372.01562 286.9743L372.01562 287.9743L368.5625 287.9743L368.29688 290.30243Q368.9375 289.92743 369.73438 289.92743Q370.89062 289.92743 371.57812 290.70868Q372.26562 291.4743 372.26562 292.7868Q372.26562 294.0993 371.54688 294.86493Q370.84375 295.63055 369.5625 295.63055Q368.4375 295.63055 367.71875 295.00555Q367.0 294.36493 366.90625 293.25555L367.92188 293.25555Q368.03125 293.98993 368.45312 294.36493Q368.875 294.73993 369.5625 294.73993Q370.3125 294.73993 370.75 294.2243Q371.1875 293.70868 371.1875 292.80243Q371.1875 291.94305 370.71875 291.42743Q370.25 290.9118 369.46875 290.9118Q368.76562 290.9118 368.35938 291.20868L368.07812 291.44305L367.20312 291.2243ZM379.29688 295.50555L373.70312 295.50555L373.70312 294.7243L376.65625 291.44305Q377.3125 290.69305 377.5625 290.23993Q377.8125 289.77118 377.8125 289.27118Q377.8125 288.5993 377.40625 288.17743Q377.01562 287.73993 376.32812 287.73993Q375.53125 287.73993 375.07812 288.20868Q374.625 288.6618 374.625 289.48993L373.54688 289.48993Q373.54688 288.30243 374.29688 287.58368Q375.0625 286.8493 376.32812 286.8493Q377.53125 286.8493 378.21875 287.4743Q378.90625 288.0993 378.90625 289.14618Q378.90625 290.39618 377.29688 292.14618L375.01562 294.61493L379.29688 294.61493L379.29688 295.50555Z" fill-rule="nonzero"/><path stroke="#ffffff" stroke-width="3.0" stroke-linejoin="round" stroke-linecap="round" d="M229.79688 314.51666L224.20312 314.51666L224.20312 313.7354L227.15625 310.45416Q227.8125 309.70416 228.0625 309.25104Q228.3125 308.7823 228.3125 308.2823Q228.3125 307.6104 227.90625 307.18854Q227.51562 306.75104 226.82812 306.75104Q226.03125 306.75104 225.57812 307.2198Q225.125 307.6729 225.125 308.50104L224.04688 308.50104Q224.04688 307.31354 224.79688 306.5948Q225.5625 305.8604 226.82812 305.8604Q228.03125 305.8604 228.71875 306.4854Q229.40625 307.1104 229.40625 308.1573Q229.40625 309.4073 227.79688 311.1573L225.51562 313.62604L229.79688 313.62604L229.79688 314.51666Z" fill-rule="nonzero"/><path fill="#ea4335" d="M229.79688 314.51666L224.20312 314.51666L224.20312 313.7354L227.15625 310.45416Q227.8125 309.70416 228.0625 309.25104Q228.3125 308.7823 228.3125 308.2823Q228.3125 307.6104 227.90625 307.18854Q227.51562 306.75104 226.82812 306.75104Q226.03125 306.75104 225.57812 307.2198Q225.125 307.6729 225.125 308.50104L224.04688 308.50104Q224.04688 307.31354 224.79688 306.5948Q225.5625 305.8604 226.82812 305.8604Q228.03125 305.8604 228.71875 306.4854Q229.40625 307.1104 229.40625 308.1573Q229.40625 309.4073 227.79688 311.1573L225.51562 313.62604L229.79688 313.62604L229.79688 314.51666Z" fill-rule="nonzero"/><path stroke="#ffffff" stroke-width="3.0" stroke-linejoin="round" stroke-linecap="round" d="M438.79688 98.95L433.20312 98.95L433.20312 98.16875L436.15625 94.8875Q436.8125 94.1375 437.0625 93.68437Q437.3125 93.21562 437.3125 92.71562Q437.3125 92.04375 436.90625 91.62187Q436.51562 91.18437 435.82812 91.18437Q435.03125 91.18437 434.57812 91.65312Q434.125 92.10625 434.125 92.93437L433.04688 92.93437Q433.04688 91.74687 433.79688 91.02812Q434.5625 90.29375 435.82812 90.29375Q437.03125 90.29375 437.71875 90.91875Q438.40625 91.54375 438.40625 92.59062Q438.40625 93.84062 436.79688 95.59062L434.51562 98.05937L438.79688 98.05937L438.79688 98.95ZM445.79688 98.95L440.20312 98.95L440.20312 98.16875L443.15625 94.8875Q443.8125 94.1375 444.0625 93.68437Q444.3125 93.21562 444.3125 92.71562Q444.3125 92.04375 443.90625 91.62187Q443.51562 91.18437 442.82812 91.18437Q442.03125 91.18437 441.57812 91.65312Q441.125 92.10625 441.125 92.93437L440.04688 92.93437Q440.04688 91.74687 440.79688 91.02812Q441.5625 90.29375 442.82812 90.29375Q444.03125 90.29375 444.71875 90.91875Q445.40625 91.54375 445.40625 92.59062Q445.40625 93.84062 443.79688 95.59062L441.51562 98.05937L445.79688 98.05937L445.79688 98.95ZM447.70312 94.66875L448.14062 90.41875L452.51562 90.41875L452.51562 91.41875L449.0625 91.41875L448.79688 93.74687Q449.4375 93.37187 450.23438 93.37187Q451.39062 93.37187 452.07812 94.15312Q452.76562 94.91875 452.76562 96.23125Q452.76562 97.54375 452.04688 98.30937Q451.34375 99.075 450.0625 99.075Q448.9375 99.075 448.21875 98.45Q447.5 97.80937 447.40625 96.7L448.42188 96.7Q448.53125 97.43437 448.95312 97.80937Q449.375 98.18437 450.0625 98.18437Q450.8125 98.18437 451.25 97.66875Q451.6875 97.15312 451.6875 96.24687Q451.6875 95.3875 451.21875 94.87187Q450.75 94.35625 449.96875 94.35625Q449.26562 94.35625 448.85938 94.65312L448.57812 94.8875L447.70312 94.66875Z" fill-rule="nonzero"/><path fill="#ea4335" d="M438.79688 98.95L433.20312 98.95L433.20312 98.16875L436.15625 94.8875Q436.8125 94.1375 437.0625 93.68437Q437.3125 93.21562 437.3125 92.71562Q437.3125 92.04375 436.90625 91.62187Q436.51562 91.18437 435.82812 91.18437Q435.03125 91.18437 434.57812 91.65312Q434.125 92.10625 434.125 92.93437L433.04688 92.93437Q433.04688 91.74687 433.79688 91.02812Q434.5625 90.29375 435.82812 90.29375Q437.03125 90.29375 437.71875 90.91875Q438.40625 91.54375 438.40625 92.59062Q438.40625 93.84062 436.79688 95.59062L434.51562 98.05937L438.79688 98.05937L438.79688 98.95ZM445.79688 98.95L440.20312 98.95L440.20312 98.16875L443.15625 94.8875Q443.8125 94.1375 444.0625 93.68437Q444.3125 93.21562 444.3125 92.71562Q444.3125 92.04375 443.90625 91.62187Q443.51562 91.18437 442.82812 91.18437Q442.03125 91.18437 441.57812 91.65312Q441.125 92.10625 441.125 92.93437L440.04688 92.93437Q440.04688 91.74687 440.79688 91.02812Q441.5625 90.29375 442.82812 90.29375Q444.03125 90.29375 444.71875 90.91875Q445.40625 91.54375 445.40625 92.59062Q445.40625 93.84062 443.79688 95.59062L441.51562 98.05937L445.79688 98.05937L445.79688 98.95ZM447.70312 94.66875L448.14062 90.41875L452.51562 90.41875L452.51562 91.41875L449.0625 91.41875L448.79688 93.74687Q449.4375 93.37187 450.23438 93.37187Q451.39062 93.37187 452.07812 94.15312Q452.76562 94.91875 452.76562 96.23125Q452.76562 97.54375 452.04688 98.30937Q451.34375 99.075 450.0625 99.075Q448.9375 99.075 448.21875 98.45Q447.5 97.80937 447.40625 96.7L448.42188 96.7Q448.53125 97.43437 448.95312 97.80937Q449.375 98.18437 450.0625 98.18437Q450.8125 98.18437 451.25 97.66875Q451.6875 97.15312 451.6875 96.24687Q451.6875 95.3875 451.21875 94.87187Q450.75 94.35625 449.96875 94.35625Q449.26562 94.35625 448.85938 94.65312L448.57812 94.8875L447.70312 94.66875Z" fill-rule="nonzero"/><path fill="#000000" d="M38.6125 332.3094Q38.6125 334.21564 37.95625 335.15314Q37.315624 336.075 35.925 336.075Q34.565624 336.075 33.909374 335.16876Q33.253124 334.2625 33.221874 332.45L33.221874 331.0125Q33.221874 329.1219 33.8625 328.21564Q34.51875 327.29376 35.909374 327.29376Q37.284374 327.29376 37.940624 328.1844Q38.596874 329.0594 38.6125 330.90314L38.6125 332.3094ZM37.51875 330.825Q37.51875 329.45 37.128124 328.825Q36.753124 328.1844 35.909374 328.1844Q35.08125 328.1844 34.690624 328.825Q34.315624 329.45 34.315624 330.7469L34.315624 332.48126Q34.315624 333.85626 34.70625 334.52814Q35.1125 335.1844 35.925 335.1844Q36.721874 335.1844 37.1125 334.5594Q37.503124 333.9344 37.51875 332.60626L37.51875 330.825Z" fill-rule="nonzero"/><path fill="#000000" d="M24.846874 255.39444L19.253124 255.39444L19.253124 254.61319L22.20625 251.33194Q22.8625 250.58194 23.1125 250.12881Q23.3625 249.66006 23.3625 249.16006Q23.3625 248.48819 22.95625 248.06631Q22.565624 247.62881 21.878124 247.62881Q21.08125 247.62881 20.628124 248.09756Q20.175 248.55069 20.175 249.37881L19.096874 249.37881Q19.096874 248.19131 19.846874 247.47256Q20.6125 246.73819 21.878124 246.73819Q23.08125 246.73819 23.76875 247.36319Q24.45625 247.98819 24.45625 249.03506Q24.45625 250.28506 22.846874 252.03506L20.565624 254.50381L24.846874 254.50381L24.846874 255.39444ZM31.6125 251.75381Q31.6125 253.66006 30.95625 254.59756Q30.315624 255.51944 28.925 255.51944Q27.565624 255.51944 26.909374 254.61319Q26.253124 253.70694 26.221874 251.89444L26.221874 250.45694Q26.221874 248.56631 26.8625 247.66006Q27.51875 246.73819 28.909374 246.73819Q30.284374 246.73819 30.940624 247.62881Q31.596874 248.50381 31.6125 250.34756L31.6125 251.75381ZM30.51875 250.26944Q30.51875 248.89444 30.128124 248.26944Q29.753124 247.62881 28.909374 247.62881Q28.08125 247.62881 27.690624 248.26944Q27.315624 248.89444 27.315624 250.19131L27.315624 251.92569Q27.315624 253.30069 27.70625 253.97256Q28.1125 254.62881 28.925 254.62881Q29.721874 254.62881 30.1125 254.00381Q30.503124 253.37881 30.51875 252.05069L30.51875 250.26944ZM38.6125 251.75381Q38.6125 253.66006 37.95625 254.59756Q37.315624 255.51944 35.925 255.51944Q34.565624 255.51944 33.909374 254.61319Q33.253124 253.70694 33.221874 251.89444L33.221874 250.45694Q33.221874 248.56631 33.8625 247.66006Q34.51875 246.73819 35.909374 246.73819Q37.284374 246.73819 37.940624 247.62881Q38.596874 248.50381 38.6125 250.34756L38.6125 251.75381ZM37.51875 250.26944Q37.51875 248.89444 37.128124 248.26944Q36.753124 247.62881 35.909374 247.62881Q35.08125 247.62881 34.690624 248.26944Q34.315624 248.89444 34.315624 250.19131L34.315624 251.92569Q34.315624 253.30069 34.70625 253.97256Q35.1125 254.62881 35.925 254.62881Q36.721874 254.62881 37.1125 254.00381Q37.503124 253.37881 37.51875 252.05069L37.51875 250.26944Z" fill-rule="nonzero"/><path fill="#000000" d="M23.83125 171.9795L25.01875 171.9795L25.01875 172.8545L23.83125 172.8545L23.83125 174.83888L22.753124 174.83888L22.753124 172.8545L18.8625 172.8545L18.8625 172.21388L22.675 166.30763L23.83125 166.30763L23.83125 171.9795ZM20.096874 171.9795L22.753124 171.9795L22.753124 167.792L22.6125 168.02638L20.096874 171.9795ZM31.6125 171.19826Q31.6125 173.1045 30.95625 174.042Q30.315624 174.96388 28.925 174.96388Q27.565624 174.96388 26.909374 174.05763Q26.253124 173.15138 26.221874 171.33888L26.221874 169.90138Q26.221874 168.01076 26.8625 167.1045Q27.51875 166.18263 28.909374 166.18263Q30.284374 166.18263 30.940624 167.07326Q31.596874 167.94826 31.6125 169.792L31.6125 171.19826ZM30.51875 169.71388Q30.51875 168.33888 30.128124 167.71388Q29.753124 167.07326 28.909374 167.07326Q28.08125 167.07326 27.690624 167.71388Q27.315624 168.33888 27.315624 169.63576L27.315624 171.37013Q27.315624 172.74513 27.70625 173.417Q28.1125 174.07326 28.925 174.07326Q29.721874 174.07326 30.1125 173.44826Q30.503124 172.82326 30.51875 171.49513L30.51875 169.71388ZM38.6125 171.19826Q38.6125 173.1045 37.95625 174.042Q37.315624 174.96388 35.925 174.96388Q34.565624 174.96388 33.909374 174.05763Q33.253124 173.15138 33.221874 171.33888L33.221874 169.90138Q33.221874 168.01076 33.8625 167.1045Q34.51875 166.18263 35.909374 166.18263Q37.284374 166.18263 37.940624 167.07326Q38.596874 167.94826 38.6125 169.792L38.6125 171.19826ZM37.51875 169.71388Q37.51875 168.33888 37.128124 167.71388Q36.753124 167.07326 35.909374 167.07326Q35.08125 167.07326 34.690624 167.71388Q34.315624 168.33888 34.315624 169.63576L34.315624 171.37013Q34.315624 172.74513 34.70625 173.417Q35.1125 174.07326 35.925 174.07326Q36.721874 174.07326 37.1125 173.44826Q37.503124 172.82326 37.51875 171.49513L37.51875 169.71388Z" fill-rule="nonzero"/><path fill="#000000" d="M23.51875 85.75208L23.51875 86.65833L23.315624 86.65833Q22.05 86.68958 21.3 87.42396Q20.55 88.14271 20.425 89.45521Q21.1125 88.68958 22.26875 88.68958Q23.378124 88.68958 24.05 89.47083Q24.721874 90.25208 24.721874 91.50208Q24.721874 92.81458 24.003124 93.61146Q23.284374 94.40833 22.065624 94.40833Q20.846874 94.40833 20.08125 93.47083Q19.33125 92.51771 19.33125 91.03333L19.33125 90.62708Q19.33125 88.26771 20.33125 87.01771Q21.33125 85.76771 23.315624 85.75208L23.51875 85.75208ZM22.096874 89.59583Q21.534374 89.59583 21.065624 89.92396Q20.596874 90.25208 20.409374 90.76771L20.409374 91.15833Q20.409374 92.22083 20.878124 92.86146Q21.3625 93.50208 22.065624 93.50208Q22.8 93.50208 23.221874 92.97083Q23.64375 92.42396 23.64375 91.54896Q23.64375 90.67396 23.221874 90.14271Q22.8 89.59583 22.096874 89.59583ZM31.6125 90.64271Q31.6125 92.54896 30.95625 93.48646Q30.315624 94.40833 28.925 94.40833Q27.565624 94.40833 26.909374 93.50208Q26.253124 92.59583 26.221874 90.78333L26.221874 89.34583Q26.221874 87.45521 26.8625 86.54896Q27.51875 85.62708 28.909374 85.62708Q30.284374 85.62708 30.940624 86.51771Q31.596874 87.39271 31.6125 89.23646L31.6125 90.64271ZM30.51875 89.15833Q30.51875 87.78333 30.128124 87.15833Q29.753124 86.51771 28.909374 86.51771Q28.08125 86.51771 27.690624 87.15833Q27.315624 87.78333 27.315624 89.08021L27.315624 90.81458Q27.315624 92.18958 27.70625 92.86146Q28.1125 93.51771 28.925 93.51771Q29.721874 93.51771 30.1125 92.89271Q30.503124 92.26771 30.51875 90.93958L30.51875 89.15833ZM38.6125 90.64271Q38.6125 92.54896 37.95625 93.48646Q37.315624 94.40833 35.925 94.40833Q34.565624 94.40833 33.909374 93.50208Q33.253124 92.59583 33.221874 90.78333L33.221874 89.34583Q33.221874 87.45521 33.8625 86.54896Q34.51875 85.62708 35.909374 85.62708Q37.284374 85.62708 37.940624 86.51771Q38.596874 87.39271 38.6125 89.23646L38.6125 90.64271ZM37.51875 89.15833Q37.51875 87.78333 37.128124 87.15833Q36.753124 86.51771 35.909374 86.51771Q35.08125 86.51771 34.690624 87.15833Q34.315624 87.78333 34.315624 89.08021L34.315624 90.81458Q34.315624 92.18958 34.70625 92.86146Q35.1125 93.51771 35.925 93.51771Q36.721874 93.51771 37.1125 92.89271Q37.503124 92.26771 37.51875 90.93958L37.51875 89.15833Z" fill-rule="nonzero"/><path fill="#000000" d="M566.5125 332.3094Q566.5125 334.21564 565.85626 335.15314Q565.21564 336.075 563.825 336.075Q562.46564 336.075 561.8094 335.16876Q561.15314 334.2625 561.1219 332.45L561.1219 331.0125Q561.1219 329.1219 561.7625 328.21564Q562.41876 327.29376 563.8094 327.29376Q565.1844 327.29376 565.84064 328.1844Q566.4969 329.0594 566.5125 330.90314L566.5125 332.3094ZM565.41876 330.825Q565.41876 329.45 565.02814 328.825Q564.65314 328.1844 563.8094 328.1844Q562.98126 328.1844 562.59064 328.825Q562.21564 329.45 562.21564 330.7469L562.21564 332.48126Q562.21564 333.85626 562.60626 334.52814Q563.0125 335.1844 563.825 335.1844Q564.6219 335.1844 565.0125 334.5594Q565.40314 333.9344 565.41876 332.60626L565.41876 330.825Z" fill-rule="nonzero"/><path fill="#000000" d="M561.65314 283.33542L562.09064 279.08542L566.46564 279.08542L566.46564 280.08542L563.0125 280.08542L562.7469 282.41354Q563.3875 282.03854 564.1844 282.03854Q565.34064 282.03854 566.02814 282.8198Q566.71564 283.58542 566.71564 284.89792Q566.71564 286.21042 565.9969 286.97604Q565.29376 287.74167 564.0125 287.74167Q562.8875 287.74167 562.16876 287.11667Q561.45 286.47604 561.35626 285.36667L562.3719 285.36667Q562.48126 286.10104 562.90314 286.47604Q563.325 286.85104 564.0125 286.85104Q564.7625 286.85104 565.2 286.33542Q565.6375 285.8198 565.6375 284.91354Q565.6375 284.05417 565.16876 283.53854Q564.7 283.02292 563.91876 283.02292Q563.21564 283.02292 562.8094 283.3198L562.52814 283.55417L561.65314 283.33542ZM573.5125 283.97604Q573.5125 285.8823 572.85626 286.8198Q572.21564 287.74167 570.825 287.74167Q569.46564 287.74167 568.8094 286.83542Q568.15314 285.92917 568.1219 284.11667L568.1219 282.67917Q568.1219 280.78854 568.7625 279.8823Q569.41876 278.96042 570.8094 278.96042Q572.1844 278.96042 572.84064 279.85104Q573.4969 280.72604 573.5125 282.5698L573.5125 283.97604ZM572.41876 282.49167Q572.41876 281.11667 572.02814 280.49167Q571.65314 279.85104 570.8094 279.85104Q569.98126 279.85104 569.59064 280.49167Q569.21564 281.11667 569.21564 282.41354L569.21564 284.14792Q569.21564 285.52292 569.60626 286.1948Q570.0125 286.85104 570.825 286.85104Q571.6219 286.85104 572.0125 286.22604Q572.40314 285.60104 572.41876 284.27292L572.41876 282.49167Z" fill-rule="nonzero"/><path fill="#000000" d="M564.71564 239.28334L563.6375 239.28334L563.6375 232.06459L561.45 232.86147L561.45 231.87709L564.5594 230.70522L564.71564 230.70522L564.71564 239.28334ZM573.5125 235.64272Q573.5125 237.54897 572.85626 238.48647Q572.21564 239.40834 570.825 239.40834Q569.46564 239.40834 568.8094 238.50209Q568.15314 237.59584 568.1219 235.78334L568.1219 234.34584Q568.1219 232.45522 568.7625 231.54897Q569.41876 230.62709 570.8094 230.62709Q572.1844 230.62709 572.84064 231.51772Q573.4969 232.39272 573.5125 234.23647L573.5125 235.64272ZM572.41876 234.15834Q572.41876 232.78334 572.02814 232.15834Q571.65314 231.51772 570.8094 231.51772Q569.98126 231.51772 569.59064 232.15834Q569.21564 232.78334 569.21564 234.08022L569.21564 235.81459Q569.21564 237.18959 569.60626 237.86147Q570.0125 238.51772 570.825 238.51772Q571.6219 238.51772 572.0125 237.89272Q572.40314 237.26772 572.41876 235.93959L572.41876 234.15834ZM580.5125 235.64272Q580.5125 237.54897 579.85626 238.48647Q579.21564 239.40834 577.825 239.40834Q576.46564 239.40834 575.8094 238.50209Q575.15314 237.59584 575.1219 235.78334L575.1219 234.34584Q575.1219 232.45522 575.7625 231.54897Q576.41876 230.62709 577.8094 230.62709Q579.1844 230.62709 579.84064 231.51772Q580.4969 232.39272 580.5125 234.23647L580.5125 235.64272ZM579.41876 234.15834Q579.41876 232.78334 579.02814 232.15834Q578.65314 231.51772 577.8094 231.51772Q576.98126 231.51772 576.59064 232.15834Q576.21564 232.78334 576.21564 234.08022L576.21564 235.81459Q576.21564 237.18959 576.60626 237.86147Q577.0125 238.51772 577.825 238.51772Q578.6219 238.51772 579.0125 237.89272Q579.40314 237.26772 579.41876 235.93959L579.41876 234.15834Z" fill-rule="nonzero"/><path fill="#000000" d="M564.71564 190.95L563.6375 190.95L563.6375 183.73125L561.45 184.52812L561.45 183.54375L564.5594 182.37187L564.71564 182.37187L564.71564 190.95ZM568.65314 186.66875L569.09064 182.41875L573.46564 182.41875L573.46564 183.41875L570.0125 183.41875L569.7469 185.74687Q570.3875 185.37187 571.1844 185.37187Q572.34064 185.37187 573.02814 186.15312Q573.71564 186.91875 573.71564 188.23125Q573.71564 189.54375 572.9969 190.30937Q572.29376 191.075 571.0125 191.075Q569.8875 191.075 569.16876 190.45Q568.45 189.80937 568.35626 188.7L569.3719 188.7Q569.48126 189.43437 569.90314 189.80937Q570.325 190.18437 571.0125 190.18437Q571.7625 190.18437 572.2 189.66875Q572.6375 189.15312 572.6375 188.24687Q572.6375 187.3875 572.16876 186.87187Q571.7 186.35625 570.91876 186.35625Q570.21564 186.35625 569.8094 186.65312L569.52814 186.8875L568.65314 186.66875ZM580.5125 187.30937Q580.5125 189.21562 579.85626 190.15312Q579.21564 191.075 577.825 191.075Q576.46564 191.075 575.8094 190.16875Q575.15314 189.2625 575.1219 187.45L575.1219 186.0125Q575.1219 184.12187 575.7625 183.21562Q576.41876 182.29375 577.8094 182.29375Q579.1844 182.29375 579.84064 183.18437Q580.4969 184.05937 580.5125 185.90312L580.5125 187.30937ZM579.41876 185.825Q579.41876 184.45 579.02814 183.825Q578.65314 183.18437 577.8094 183.18437Q576.98126 183.18437 576.59064 183.825Q576.21564 184.45 576.21564 185.74687L576.21564 187.48125Q576.21564 188.85625 576.60626 189.52812Q577.0125 190.18437 577.825 190.18437Q578.6219 190.18437 579.0125 189.55937Q579.40314 188.93437 579.41876 187.60625L579.41876 185.825Z" fill-rule="nonzero"/><path fill="#000000" d="M566.7469 142.61667L561.15314 142.61667L561.15314 141.83542L564.10626 138.55417Q564.7625 137.80417 565.0125 137.35104Q565.2625 136.8823 565.2625 136.3823Q565.2625 135.71042 564.85626 135.28854Q564.46564 134.85104 563.77814 134.85104Q562.98126 134.85104 562.52814 135.3198Q562.075 135.77292 562.075 136.60104L560.9969 136.60104Q560.9969 135.41354 561.7469 134.6948Q562.5125 133.96042 563.77814 133.96042Q564.98126 133.96042 565.66876 134.58542Q566.35626 135.21042 566.35626 136.2573Q566.35626 137.5073 564.7469 139.2573L562.46564 141.72604L566.7469 141.72604L566.7469 142.61667ZM573.5125 138.97604Q573.5125 140.8823 572.85626 141.8198Q572.21564 142.74167 570.825 142.74167Q569.46564 142.74167 568.8094 141.83542Q568.15314 140.92917 568.1219 139.11667L568.1219 137.67917Q568.1219 135.78854 568.7625 134.8823Q569.41876 133.96042 570.8094 133.96042Q572.1844 133.96042 572.84064 134.85104Q573.4969 135.72604 573.5125 137.5698L573.5125 138.97604ZM572.41876 137.49167Q572.41876 136.11667 572.02814 135.49167Q571.65314 134.85104 570.8094 134.85104Q569.98126 134.85104 569.59064 135.49167Q569.21564 136.11667 569.21564 137.41354L569.21564 139.14792Q569.21564 140.52292 569.60626 141.1948Q570.0125 141.85104 570.825 141.85104Q571.6219 141.85104 572.0125 141.22604Q572.40314 140.60104 572.41876 139.27292L572.41876 137.49167ZM580.5125 138.97604Q580.5125 140.8823 579.85626 141.8198Q579.21564 142.74167 577.825 142.74167Q576.46564 142.74167 575.8094 141.83542Q575.15314 140.92917 575.1219 139.11667L575.1219 137.67917Q575.1219 135.78854 575.7625 134.8823Q576.41876 133.96042 577.8094 133.96042Q579.1844 133.96042 579.84064 134.85104Q580.4969 135.72604 580.5125 137.5698L580.5125 138.97604ZM579.41876 137.49167Q579.41876 136.11667 579.02814 135.49167Q578.65314 134.85104 577.8094 134.85104Q576.98126 134.85104 576.59064 135.49167Q576.21564 136.11667 576.21564 137.41354L576.21564 139.14792Q576.21564 140.52292 576.60626 141.1948Q577.0125 141.85104 577.825 141.85104Q578.6219 141.85104 579.0125 141.22604Q579.40314 140.60104 579.41876 139.27292L579.41876 137.49167Z" fill-rule="nonzero"/><path fill="#000000" d="M566.7469 94.28333L561.15314 94.28333L561.15314 93.50208L564.10626 90.22083Q564.7625 89.47083 565.0125 89.01771Q565.2625 88.54896 565.2625 88.04896Q565.2625 87.37708 564.85626 86.95521Q564.46564 86.51771 563.77814 86.51771Q562.98126 86.51771 562.52814 86.98646Q562.075 87.43958 562.075 88.26771L560.9969 88.26771Q560.9969 87.08021 561.7469 86.36146Q562.5125 85.62708 563.77814 85.62708Q564.98126 85.62708 565.66876 86.25208Q566.35626 86.87708 566.35626 87.92396Q566.35626 89.17396 564.7469 90.92396L562.46564 93.39271L566.7469 93.39271L566.7469 94.28333ZM568.65314 90.00208L569.09064 85.75208L573.46564 85.75208L573.46564 86.75208L570.0125 86.75208L569.7469 89.08021Q570.3875 88.70521 571.1844 88.70521Q572.34064 88.70521 573.02814 89.48646Q573.71564 90.25208 573.71564 91.56458Q573.71564 92.87708 572.9969 93.64271Q572.29376 94.40833 571.0125 94.40833Q569.8875 94.40833 569.16876 93.78333Q568.45 93.14271 568.35626 92.03333L569.3719 92.03333Q569.48126 92.76771 569.90314 93.14271Q570.325 93.51771 571.0125 93.51771Q571.7625 93.51771 572.2 93.00208Q572.6375 92.48646 572.6375 91.58021Q572.6375 90.72083 572.16876 90.20521Q571.7 89.68958 570.91876 89.68958Q570.21564 89.68958 569.8094 89.98646L569.52814 90.22083L568.65314 90.00208ZM580.5125 90.64271Q580.5125 92.54896 579.85626 93.48646Q579.21564 94.40833 577.825 94.40833Q576.46564 94.40833 575.8094 93.50208Q575.15314 92.59583 575.1219 90.78333L575.1219 89.34583Q575.1219 87.45521 575.7625 86.54896Q576.41876 85.62708 577.8094 85.62708Q579.1844 85.62708 579.84064 86.51771Q580.4969 87.39271 580.5125 89.23646L580.5125 90.64271ZM579.41876 89.15833Q579.41876 87.78333 579.02814 87.15833Q578.65314 86.51771 577.8094 86.51771Q576.98126 86.51771 576.59064 87.15833Q576.21564 87.78333 576.21564 89.08021L576.21564 90.81458Q576.21564 92.18958 576.60626 92.86146Q577.0125 93.51771 577.825 93.51771Q578.6219 93.51771 579.0125 92.89271Q579.40314 92.26771 579.41876 90.93958L579.41876 89.15833Z" fill-rule="nonzero"/><path fill="#000000" d="M177.20778 349.45L177.20778 340.91876L179.62965 340.91876Q180.73903 340.91876 181.58278 341.41876Q182.44215 341.90314 182.9109 342.8094Q183.37965 343.71564 183.37965 344.90314L183.37965 345.4344Q183.37965 346.65314 182.9109 347.5594Q182.45778 348.46564 181.58278 348.95Q180.7234 349.4344 179.58278 349.45L177.20778 349.45ZM178.33278 341.84064L178.33278 348.52814L179.52028 348.52814Q180.81715 348.52814 181.5359 347.73126Q182.27028 346.91876 182.27028 345.41876L182.27028 344.91876Q182.27028 343.46564 181.58278 342.66876Q180.9109 341.85626 179.64528 341.84064L178.33278 341.84064ZM184.75465 346.21564Q184.75465 345.29376 185.11403 344.54376Q185.48903 343.79376 186.14528 343.40314Q186.80153 342.9969 187.62965 342.9969Q188.92653 342.9969 189.7234 343.8875Q190.5359 344.77814 190.5359 346.27814L190.5359 346.35626Q190.5359 347.27814 190.17653 348.0125Q189.81715 348.7469 189.1609 349.16876Q188.50465 349.575 187.64528 349.575Q186.36403 349.575 185.55153 348.6844Q184.75465 347.77814 184.75465 346.29376L184.75465 346.21564ZM185.8484 346.35626Q185.8484 347.40314 186.33278 348.04376Q186.83278 348.6844 187.64528 348.6844Q188.4734 348.6844 188.95778 348.04376Q189.44215 347.3875 189.44215 346.21564Q189.44215 345.1844 188.94215 344.54376Q188.45778 343.8875 187.62965 343.8875Q186.83278 343.8875 186.33278 344.52814Q185.8484 345.15314 185.8484 346.35626ZM193.06715 348.5594L196.77028 348.5594L196.77028 349.45L191.73903 349.45L191.73903 348.65314L195.23903 344.0125L191.7859 344.0125L191.7859 343.10626L196.5984 343.10626L196.5984 343.8719L193.06715 348.5594ZM200.67653 349.575Q199.37965 349.575 198.56715 348.73126Q197.77028 347.8719 197.77028 346.45L197.77028 346.2625Q197.77028 345.3094 198.12965 344.575Q198.48903 343.825 199.12965 343.41876Q199.7859 342.9969 200.5359 342.9969Q201.77028 342.9969 202.45778 343.8094Q203.14528 344.6219 203.14528 346.1375L203.14528 346.59064L198.8484 346.59064Q198.87965 347.52814 199.39528 348.10626Q199.92653 348.6844 200.73903 348.6844Q201.30153 348.6844 201.69215 348.45Q202.0984 348.21564 202.4109 347.825L203.06715 348.34064Q202.27028 349.575 200.67653 349.575ZM200.5359 343.8875Q199.87965 343.8875 199.42653 344.3719Q198.98903 344.84064 198.89528 345.7L202.06715 345.7L202.06715 345.6219Q202.02028 344.79376 201.61403 344.34064Q201.2234 343.8875 200.5359 343.8875ZM207.11403 344.075Q206.86403 344.04376 206.58278 344.04376Q205.50465 344.04376 205.12965 344.95L205.12965 349.45L204.05153 349.45L204.05153 343.10626L205.0984 343.10626L205.11403 343.84064Q205.64528 342.9969 206.62965 342.9969Q206.94215 342.9969 207.11403 343.075L207.11403 344.075Z" fill-rule="nonzero"/><path fill="#000000" d="M382.26096 349.45L382.26096 340.91876L384.68283 340.91876Q385.7922 340.91876 386.63596 341.41876Q387.49533 341.90314 387.96408 342.8094Q388.43283 343.71564 388.43283 344.90314L388.43283 345.4344Q388.43283 346.65314 387.96408 347.5594Q387.51096 348.46564 386.63596 348.95Q385.77658 349.4344 384.63596 349.45L382.26096 349.45ZM383.38596 341.84064L383.38596 348.52814L384.57346 348.52814Q385.87033 348.52814 386.58908 347.73126Q387.32346 346.91876 387.32346 345.41876L387.32346 344.91876Q387.32346 343.46564 386.63596 342.66876Q385.96408 341.85626 384.69846 341.84064L383.38596 341.84064ZM392.7297 349.575Q391.43283 349.575 390.62033 348.73126Q389.82346 347.8719 389.82346 346.45L389.82346 346.2625Q389.82346 345.3094 390.18283 344.575Q390.5422 343.825 391.18283 343.41876Q391.83908 342.9969 392.58908 342.9969Q393.82346 342.9969 394.51096 343.8094Q395.19846 344.6219 395.19846 346.1375L395.19846 346.59064L390.90158 346.59064Q390.93283 347.52814 391.44846 348.10626Q391.9797 348.6844 392.7922 348.6844Q393.3547 348.6844 393.74533 348.45Q394.15158 348.21564 394.46408 347.825L395.12033 348.34064Q394.32346 349.575 392.7297 349.575ZM392.58908 343.8875Q391.93283 343.8875 391.4797 344.3719Q391.0422 344.84064 390.94846 345.7L394.12033 345.7L394.12033 345.6219Q394.07346 344.79376 393.6672 344.34064Q393.27658 343.8875 392.58908 343.8875ZM401.46408 346.35626Q401.46408 347.8094 400.7922 348.7Q400.13596 349.575 399.01096 349.575Q397.80783 349.575 397.15158 348.71564L397.08908 349.45L396.1047 349.45L396.1047 340.45L397.18283 340.45L397.18283 343.8094Q397.83908 342.9969 398.99533 342.9969Q400.15158 342.9969 400.80783 343.8719Q401.46408 344.73126 401.46408 346.2625L401.46408 346.35626ZM400.38596 346.23126Q400.38596 345.1219 399.94846 344.52814Q399.52658 343.91876 398.7297 343.91876Q397.65158 343.91876 397.18283 344.90314L397.18283 347.65314Q397.68283 348.65314 398.7297 348.65314Q399.51096 348.65314 399.94846 348.04376Q400.38596 347.4344 400.38596 346.23126ZM405.7297 349.575Q404.43283 349.575 403.62033 348.73126Q402.82346 347.8719 402.82346 346.45L402.82346 346.2625Q402.82346 345.3094 403.18283 344.575Q403.5422 343.825 404.18283 343.41876Q404.83908 342.9969 405.58908 342.9969Q406.82346 342.9969 407.51096 343.8094Q408.19846 344.6219 408.19846 346.1375L408.19846 346.59064L403.90158 346.59064Q403.93283 347.52814 404.44846 348.10626Q404.9797 348.6844 405.7922 348.6844Q406.3547 348.6844 406.74533 348.45Q407.15158 348.21564 407.46408 347.825L408.12033 348.34064Q407.32346 349.575 405.7297 349.575ZM405.58908 343.8875Q404.93283 343.8875 404.4797 344.3719Q404.0422 344.84064 403.94846 345.7L407.12033 345.7L407.12033 345.6219Q407.07346 344.79376 406.6672 344.34064Q406.27658 343.8875 405.58908 343.8875ZM410.12033 348.5594L413.82346 348.5594L413.82346 349.45L408.7922 349.45L408.7922 348.65314L412.2922 344.0125L408.83908 344.0125L408.83908 343.10626L413.65158 343.10626L413.65158 343.8719L410.12033 348.5594ZM416.27658 349.45L415.19846 349.45L415.19846 343.10626L416.27658 343.10626L416.27658 349.45ZM415.1047 341.4344Q415.1047 341.16876 415.26096 340.98126Q415.43283 340.79376 415.74533 340.79376Q416.05783 340.79376 416.21408 340.98126Q416.38596 341.16876 416.38596 341.4344Q416.38596 341.6844 416.21408 341.8719Q416.05783 342.04376 415.74533 342.04376Q415.43283 342.04376 415.26096 341.8719Q415.1047 341.6844 415.1047 341.4344ZM422.01096 348.825Q421.38596 349.575 420.15158 349.575Q419.13596 349.575 418.6047 348.98126Q418.07346 348.3875 418.07346 347.23126L418.07346 343.10626L419.15158 343.10626L419.15158 347.2Q419.15158 348.65314 420.32346 348.65314Q421.57346 348.65314 421.9797 347.71564L421.9797 343.10626L423.07346 343.10626L423.07346 349.45L422.0422 349.45L422.01096 348.825ZM426.12033 343.10626L426.15158 343.8094Q426.83908 342.9969 428.02658 342.9969Q429.3547 342.9969 429.83908 344.0125Q430.15158 343.5594 430.65158 343.27814Q431.1672 342.9969 431.8547 342.9969Q433.94846 342.9969 433.9797 345.2L433.9797 349.45L432.90158 349.45L432.90158 345.2625Q432.90158 344.59064 432.58908 344.2625Q432.27658 343.91876 431.5422 343.91876Q430.93283 343.91876 430.52658 344.27814Q430.13596 344.6375 430.07346 345.2469L430.07346 349.45L428.99533 349.45L428.99533 345.29376Q428.99533 343.91876 427.63596 343.91876Q426.57346 343.91876 426.18283 344.825L426.18283 349.45L425.08908 349.45L425.08908 343.10626L426.12033 343.10626Z" fill-rule="nonzero"/><path fill="#4285f4" d="M185.5 57.416668C185.5 56.864384 185.94771 56.416668 186.5 56.416668L196.5 56.416668C197.05229 56.416668 197.5 56.864384 197.5 57.416668L197.5 67.416664C197.5 67.96895 197.05229 68.416664 196.5 68.416664L186.5 68.416664C185.94771 68.416664 185.5 67.96895 185.5 67.416664Z" fill-rule="nonzero"/><path fill="#1a1a1a" d="M212.39062 59.30729L209.64062 59.30729L209.64062 66.916664L208.53125 66.916664L208.53125 59.30729L205.78125 59.30729L205.78125 58.385414L212.39062 58.385414L212.39062 59.30729ZM214.40625 61.33854Q215.125 60.46354 216.28125 60.46354Q218.29688 60.46354 218.3125 62.729164L218.3125 66.916664L217.21875 66.916664L217.21875 62.71354Q217.21875 62.041664 216.90625 61.71354Q216.60938 61.385414 215.95312 61.385414Q215.42188 61.385414 215.01562 61.666664Q214.625 61.947914 214.40625 62.40104L214.40625 66.916664L213.32812 66.916664L213.32812 57.916664L214.40625 57.916664L214.40625 61.33854ZM223.39062 61.541664Q223.14062 61.510414 222.85938 61.510414Q221.78125 61.510414 221.40625 62.416664L221.40625 66.916664L220.32812 66.916664L220.32812 60.572914L221.375 60.572914L221.39062 61.30729Q221.92188 60.46354 222.90625 60.46354Q223.21875 60.46354 223.39062 60.541664L223.39062 61.541664ZM224.03125 63.68229Q224.03125 62.760414 224.39062 62.010414Q224.76562 61.260414 225.42188 60.86979Q226.07812 60.46354 226.90625 60.46354Q228.20312 60.46354 229.0 61.354164Q229.8125 62.24479 229.8125 63.74479L229.8125 63.822914Q229.8125 64.74479 229.45312 65.479164Q229.09375 66.21354 228.4375 66.635414Q227.78125 67.041664 226.92188 67.041664Q225.64062 67.041664 224.82812 66.15104Q224.03125 65.24479 224.03125 63.760414L224.03125 63.68229ZM225.125 63.822914Q225.125 64.86979 225.60938 65.510414Q226.10938 66.15104 226.92188 66.15104Q227.75 66.15104 228.23438 65.510414Q228.71875 64.854164 228.71875 63.68229Q228.71875 62.65104 228.21875 62.010414Q227.73438 61.354164 226.90625 61.354164Q226.10938 61.354164 225.60938 61.99479Q225.125 62.61979 225.125 63.822914ZM235.23438 66.291664Q234.60938 67.041664 233.375 67.041664Q232.35938 67.041664 231.82812 66.447914Q231.29688 65.854164 231.29688 64.697914L231.29688 60.572914L232.375 60.572914L232.375 64.666664Q232.375 66.11979 233.54688 66.11979Q234.79688 66.11979 235.20312 65.18229L235.20312 60.572914L236.29688 60.572914L236.29688 66.916664L235.26562 66.916664L235.23438 66.291664ZM238.0625 63.697914Q238.0625 62.21354 238.75 61.33854Q239.4375 60.46354 240.5625 60.46354Q241.71875 60.46354 242.375 61.27604L242.42188 60.572914L243.42188 60.572914L243.42188 66.760414Q243.42188 67.99479 242.6875 68.697914Q241.95312 69.416664 240.73438 69.416664Q240.04688 69.416664 239.39062 69.11979Q238.73438 68.822914 238.39062 68.322914L238.95312 67.666664Q239.64062 68.52604 240.65625 68.52604Q241.4375 68.52604 241.875 68.072914Q242.32812 67.635414 242.32812 66.822914L242.32812 66.27604Q241.67188 67.041664 240.54688 67.041664Q239.4375 67.041664 238.75 66.15104Q238.0625 65.24479 238.0625 63.697914ZM239.15625 63.822914Q239.15625 64.885414 239.59375 65.510414Q240.03125 66.11979 240.82812 66.11979Q241.84375 66.11979 242.32812 65.18229L242.32812 62.291664Q241.82812 61.385414 240.82812 61.385414Q240.04688 61.385414 239.59375 61.99479Q239.15625 62.604164 239.15625 63.822914ZM246.40625 61.33854Q247.125 60.46354 248.28125 60.46354Q250.29688 60.46354 250.3125 62.729164L250.3125 66.916664L249.21875 66.916664L249.21875 62.71354Q249.21875 62.041664 248.90625 61.71354Q248.60938 61.385414 247.95312 61.385414Q247.42188 61.385414 247.01562 61.666664Q246.625 61.947914 246.40625 62.40104L246.40625 66.916664L245.32812 66.916664L245.32812 57.916664L246.40625 57.916664L246.40625 61.33854ZM257.67188 63.822914Q257.67188 65.260414 257.01562 66.15104Q256.35938 67.041664 255.21875 67.041664Q254.0625 67.041664 253.40625 66.30729L253.40625 69.354164L252.32812 69.354164L252.32812 60.572914L253.3125 60.572914L253.35938 61.27604Q254.03125 60.46354 255.20312 60.46354Q256.34375 60.46354 257.0 61.322914Q257.67188 62.18229 257.67188 63.71354L257.67188 63.822914ZM256.59375 63.697914Q256.59375 62.61979 256.125 62.010414Q255.67188 61.385414 254.875 61.385414Q253.89062 61.385414 253.40625 62.24479L253.40625 65.27604Q253.89062 66.15104 254.89062 66.15104Q255.67188 66.15104 256.125 65.541664Q256.59375 64.916664 256.59375 63.697914ZM263.23438 66.291664Q262.60938 67.041664 261.375 67.041664Q260.35938 67.041664 259.82812 66.447914Q259.29688 65.854164 259.29688 64.697914L259.29688 60.572914L260.375 60.572914L260.375 64.666664Q260.375 66.11979 261.54688 66.11979Q262.79688 66.11979 263.20312 65.18229L263.20312 60.572914L264.29688 60.572914L264.29688 66.916664L263.26562 66.916664L263.23438 66.291664ZM267.79688 59.041664L267.79688 60.572914L268.96875 60.572914L268.96875 61.416664L267.79688 61.416664L267.79688 65.33854Q267.79688 65.729164 267.95312 65.916664Q268.10938 66.104164 268.48438 66.104164Q268.67188 66.104164 269.0 66.041664L269.0 66.916664Q268.57812 67.041664 268.17188 67.041664Q267.45312 67.041664 267.07812 66.604164Q266.70312 66.15104 266.70312 65.33854L266.70312 61.416664L265.54688 61.416664L265.54688 60.572914L266.70312 60.572914L266.70312 59.041664L267.79688 59.041664ZM273.28125 63.447914Q273.28125 62.135414 273.625 60.916664Q273.98438 59.697914 274.6875 58.697914Q275.39062 57.697914 276.15625 57.291664L276.375 58.010414Q275.51562 58.666664 274.96875 60.010414Q274.42188 61.354164 274.375 63.02604L274.35938 63.52604Q274.35938 65.791664 275.1875 67.447914Q275.6875 68.447914 276.375 69.010414L276.15625 69.666664Q275.375 69.24479 274.65625 68.21354Q273.28125 66.229164 273.28125 63.447914ZM278.9375 58.385414L281.73438 65.33854L284.51562 58.385414L285.98438 58.385414L285.98438 66.916664L284.85938 66.916664L284.85938 63.58854L284.96875 60.010414L282.15625 66.916664L281.29688 66.916664L278.5 60.02604L278.60938 63.58854L278.60938 66.916664L277.48438 66.916664L277.48438 58.385414L278.9375 58.385414ZM287.48438 66.916664L287.48438 58.385414L290.28125 58.385414Q291.67188 58.385414 292.35938 58.96354Q293.0625 59.52604 293.0625 60.65104Q293.0625 61.260414 292.71875 61.729164Q292.39062 62.18229 291.79688 62.43229Q292.5 62.61979 292.89062 63.166664Q293.29688 63.697914 293.29688 64.447914Q293.29688 65.604164 292.54688 66.260414Q291.8125 66.916664 290.45312 66.916664L287.48438 66.916664ZM288.60938 62.93229L288.60938 65.99479L290.46875 65.99479Q291.26562 65.99479 291.71875 65.58854Q292.17188 65.18229 292.17188 64.46354Q292.17188 62.93229 290.48438 62.93229L288.60938 62.93229ZM288.60938 62.02604L290.3125 62.02604Q291.04688 62.02604 291.48438 61.666664Q291.9375 61.291664 291.9375 60.65104Q291.9375 59.947914 291.53125 59.635414Q291.125 59.30729 290.28125 59.30729L288.60938 59.30729L288.60938 62.02604ZM294.53125 67.65104L293.60938 67.65104L297.17188 58.385414L298.09375 58.385414L294.53125 67.65104ZM303.01562 65.229164Q303.01562 64.791664 302.67188 64.55729Q302.34375 64.30729 301.51562 64.135414Q300.70312 63.96354 300.21875 63.71354Q299.73438 63.46354 299.5 63.135414Q299.28125 62.791664 299.28125 62.322914Q299.28125 61.541664 299.9375 61.010414Q300.59375 60.46354 301.625 60.46354Q302.70312 60.46354 303.35938 61.02604Q304.03125 61.572914 304.03125 62.43229L302.95312 62.43229Q302.95312 61.99479 302.5625 61.68229Q302.1875 61.354164 301.625 61.354164Q301.03125 61.354164 300.6875 61.61979Q300.35938 61.86979 300.35938 62.27604Q300.35938 62.666664 300.67188 62.86979Q300.98438 63.072914 301.79688 63.260414Q302.60938 63.43229 303.10938 63.68229Q303.60938 63.93229 303.84375 64.291664Q304.09375 64.65104 304.09375 65.15104Q304.09375 66.010414 303.40625 66.52604Q302.73438 67.041664 301.65625 67.041664Q300.89062 67.041664 300.29688 66.77604Q299.71875 66.49479 299.39062 66.010414Q299.0625 65.52604 299.0625 64.96354L300.14062 64.96354Q300.17188 65.510414 300.57812 65.83854Q300.98438 66.15104 301.65625 66.15104Q302.26562 66.15104 302.64062 65.90104Q303.01562 65.65104 303.01562 65.229164ZM307.82812 63.510414Q307.82812 64.822914 307.48438 66.02604Q307.14062 67.21354 306.42188 68.229164Q305.71875 69.24479 304.95312 69.666664L304.71875 69.010414Q305.625 68.322914 306.17188 66.86979Q306.71875 65.40104 306.73438 63.635414L306.73438 63.447914Q306.73438 62.21354 306.46875 61.15104Q306.21875 60.08854 305.75 59.260414Q305.29688 58.416664 304.71875 57.947914L304.95312 57.291664Q305.71875 57.71354 306.42188 58.71354Q307.125 59.71354 307.46875 60.93229Q307.82812 62.135414 307.82812 63.510414Z" fill-rule="nonzero"/><path fill="#ea4335" d="M324.5 57.416668C324.5 56.864384 324.94772 56.416668 325.5 56.416668L335.5 56.416668C336.05228 56.416668 336.5 56.864384 336.5 57.416668L336.5 67.416664C336.5 67.96895 336.05228 68.416664 335.5 68.416664L325.5 68.416664C324.94772 68.416664 324.5 67.96895 324.5 67.416664Z" fill-rule="nonzero"/><path fill="#1a1a1a" d="M346.625 65.99479L350.67188 65.99479L350.67188 66.916664L345.48438 66.916664L345.48438 58.385414L346.625 58.385414L346.625 65.99479ZM355.23438 66.916664Q355.14062 66.729164 355.07812 66.24479Q354.32812 67.041664 353.28125 67.041664Q352.34375 67.041664 351.73438 66.510414Q351.14062 65.979164 351.14062 65.15104Q351.14062 64.166664 351.89062 63.61979Q352.64062 63.072914 354.01562 63.072914L355.0625 63.072914L355.0625 62.572914Q355.0625 62.010414 354.71875 61.68229Q354.39062 61.33854 353.71875 61.33854Q353.14062 61.33854 352.75 61.635414Q352.35938 61.916664 352.35938 62.33854L351.26562 62.33854Q351.26562 61.854164 351.59375 61.416664Q351.9375 60.979164 352.51562 60.729164Q353.09375 60.46354 353.78125 60.46354Q354.89062 60.46354 355.5 61.010414Q356.125 61.55729 356.15625 62.510414L356.15625 65.43229Q356.15625 66.30729 356.375 66.822914L356.375 66.916664L355.23438 66.916664ZM353.4375 66.08854Q353.95312 66.08854 354.40625 65.822914Q354.85938 65.55729 355.0625 65.135414L355.0625 63.83854L354.21875 63.83854Q352.21875 63.83854 352.21875 65.010414Q352.21875 65.510414 352.5625 65.80729Q352.90625 66.08854 353.4375 66.08854ZM359.79688 59.041664L359.79688 60.572914L360.96875 60.572914L360.96875 61.416664L359.79688 61.416664L359.79688 65.33854Q359.79688 65.729164 359.95312 65.916664Q360.10938 66.104164 360.48438 66.104164Q360.67188 66.104164 361.0 66.041664L361.0 66.916664Q360.57812 67.041664 360.17188 67.041664Q359.45312 67.041664 359.07812 66.604164Q358.70312 66.15104 358.70312 65.33854L358.70312 61.416664L357.54688 61.416664L357.54688 60.572914L358.70312 60.572914L358.70312 59.041664L359.79688 59.041664ZM364.95312 67.041664Q363.65625 67.041664 362.84375 66.197914Q362.04688 65.33854 362.04688 63.916664L362.04688 63.729164Q362.04688 62.77604 362.40625 62.041664Q362.76562 61.291664 363.40625 60.885414Q364.0625 60.46354 364.8125 60.46354Q366.04688 60.46354 366.73438 61.27604Q367.42188 62.08854 367.42188 63.604164L367.42188 64.05729L363.125 64.05729Q363.15625 64.99479 363.67188 65.572914Q364.20312 66.15104 365.01562 66.15104Q365.57812 66.15104 365.96875 65.916664Q366.375 65.68229 366.6875 65.291664L367.34375 65.80729Q366.54688 67.041664 364.95312 67.041664ZM364.8125 61.354164Q364.15625 61.354164 363.70312 61.83854Q363.26562 62.30729 363.17188 63.166664L366.34375 63.166664L366.34375 63.08854Q366.29688 62.260414 365.89062 61.80729Q365.5 61.354164 364.8125 61.354164ZM369.34375 60.572914L369.375 61.36979Q370.10938 60.46354 371.28125 60.46354Q373.29688 60.46354 373.3125 62.729164L373.3125 66.916664L372.21875 66.916664L372.21875 62.71354Q372.21875 62.041664 371.90625 61.71354Q371.60938 61.385414 370.95312 61.385414Q370.42188 61.385414 370.01562 61.666664Q369.625 61.947914 369.40625 62.40104L369.40625 66.916664L368.32812 66.916664L368.32812 60.572914L369.34375 60.572914ZM377.85938 66.15104Q378.4375 66.15104 378.875 65.80729Q379.3125 65.447914 379.35938 64.916664L380.39062 64.916664Q380.35938 65.46354 380.0 65.96354Q379.65625 66.447914 379.07812 66.74479Q378.51562 67.041664 377.85938 67.041664Q376.5625 67.041664 375.79688 66.18229Q375.04688 65.30729 375.04688 63.80729L375.04688 63.61979Q375.04688 62.697914 375.375 61.979164Q375.71875 61.260414 376.34375 60.86979Q376.98438 60.46354 377.85938 60.46354Q378.92188 60.46354 379.625 61.104164Q380.34375 61.729164 380.39062 62.760414L379.35938 62.760414Q379.3125 62.135414 378.89062 61.74479Q378.46875 61.354164 377.85938 61.354164Q377.03125 61.354164 376.57812 61.947914Q376.125 62.541664 376.125 63.666664L376.125 63.86979Q376.125 64.96354 376.57812 65.55729Q377.03125 66.15104 377.85938 66.15104ZM383.39062 65.322914L384.875 60.572914L386.03125 60.572914L383.48438 67.90104Q382.89062 69.479164 381.60938 69.479164L381.39062 69.46354L381.0 69.385414L381.0 68.510414L381.28125 68.52604Q381.84375 68.52604 382.14062 68.30729Q382.45312 68.08854 382.65625 67.49479L382.89062 66.83854L380.625 60.572914L381.8125 60.572914L383.39062 65.322914ZM390.28125 63.447914Q390.28125 62.135414 390.625 60.916664Q390.98438 59.697914 391.6875 58.697914Q392.39062 57.697914 393.15625 57.291664L393.375 58.010414Q392.51562 58.666664 391.96875 60.010414Q391.42188 61.354164 391.375 63.02604L391.35938 63.52604Q391.35938 65.791664 392.1875 67.447914Q392.6875 68.447914 393.375 69.010414L393.15625 69.666664Q392.375 69.24479 391.65625 68.21354Q390.28125 66.229164 390.28125 63.447914ZM395.34375 60.572914L395.375 61.27604Q396.0625 60.46354 397.25 60.46354Q398.57812 60.46354 399.0625 61.479164Q399.375 61.02604 399.875 60.74479Q400.39062 60.46354 401.07812 60.46354Q403.17188 60.46354 403.20312 62.666664L403.20312 66.916664L402.125 66.916664L402.125 62.729164Q402.125 62.05729 401.8125 61.729164Q401.5 61.385414 400.76562 61.385414Q400.15625 61.385414 399.75 61.74479Q399.35938 62.104164 399.29688 62.71354L399.29688 66.916664L398.21875 66.916664L398.21875 62.760414Q398.21875 61.385414 396.85938 61.385414Q395.79688 61.385414 395.40625 62.291664L395.40625 66.916664L394.3125 66.916664L394.3125 60.572914L395.34375 60.572914ZM409.01562 65.229164Q409.01562 64.791664 408.67188 64.55729Q408.34375 64.30729 407.51562 64.135414Q406.70312 63.96354 406.21875 63.71354Q405.73438 63.46354 405.5 63.135414Q405.28125 62.791664 405.28125 62.322914Q405.28125 61.541664 405.9375 61.010414Q406.59375 60.46354 407.625 60.46354Q408.70312 60.46354 409.35938 61.02604Q410.03125 61.572914 410.03125 62.43229L408.95312 62.43229Q408.95312 61.99479 408.5625 61.68229Q408.1875 61.354164 407.625 61.354164Q407.03125 61.354164 406.6875 61.61979Q406.35938 61.86979 406.35938 62.27604Q406.35938 62.666664 406.67188 62.86979Q406.98438 63.072914 407.79688 63.260414Q408.60938 63.43229 409.10938 63.68229Q409.60938 63.93229 409.84375 64.291664Q410.09375 64.65104 410.09375 65.15104Q410.09375 66.010414 409.40625 66.52604Q408.73438 67.041664 407.65625 67.041664Q406.89062 67.041664 406.29688 66.77604Q405.71875 66.49479 405.39062 66.010414Q405.0625 65.52604 405.0625 64.96354L406.14062 64.96354Q406.17188 65.510414 406.57812 65.83854Q406.98438 66.15104 407.65625 66.15104Q408.26562 66.15104 408.64062 65.90104Q409.01562 65.65104 409.01562 65.229164ZM413.82812 63.510414Q413.82812 64.822914 413.48438 66.02604Q413.14062 67.21354 412.42188 68.229164Q411.71875 69.24479 410.95312 69.666664L410.71875 69.010414Q411.625 68.322914 412.17188 66.86979Q412.71875 65.40104 412.73438 63.635414L412.73438 63.447914Q412.73438 62.21354 412.46875 61.15104Q412.21875 60.08854 411.75 59.260414Q411.29688 58.416664 410.71875 57.947914L410.95312 57.291664Q411.71875 57.71354 412.42188 58.71354Q413.125 59.71354 413.46875 60.93229Q413.82812 62.135414 413.82812 63.510414Z" fill-rule="nonzero"/><path fill="#757575" d="M22.08125 31.9875L22.08125 37.55L20.20625 37.55L20.20625 23.33125L25.440624 23.33125Q27.784374 23.33125 29.096874 24.51875Q30.425 25.70625 30.425 27.675Q30.425 29.753124 29.128124 30.878124Q27.83125 31.9875 25.425 31.9875L22.08125 31.9875ZM22.08125 30.45625L25.440624 30.45625Q26.95625 30.45625 27.753124 29.753124Q28.55 29.034374 28.55 27.690624Q28.55 26.425 27.753124 25.675Q26.95625 24.909374 25.55 24.878124L22.08125 24.878124L22.08125 30.45625ZM32.440624 32.175Q32.440624 30.6125 33.05 29.378124Q33.659374 28.128124 34.7375 27.45625Q35.83125 26.784374 37.2375 26.784374Q39.39375 26.784374 40.721874 28.284374Q42.065624 29.76875 42.065624 32.253124L42.065624 32.378124Q42.065624 33.925 41.471874 35.159374Q40.878124 36.378124 39.76875 37.065624Q38.675 37.753124 37.253124 37.753124Q35.1125 37.753124 33.76875 36.253124Q32.440624 34.753124 32.440624 32.3L32.440624 32.175ZM34.253124 32.378124Q34.253124 34.14375 35.065624 35.20625Q35.89375 36.26875 37.253124 36.26875Q38.628124 36.26875 39.440624 35.190624Q40.253124 34.1125 40.253124 32.175Q40.253124 30.425 39.425 29.346874Q38.596874 28.26875 37.2375 28.26875Q35.89375 28.26875 35.065624 29.33125Q34.253124 30.39375 34.253124 32.378124ZM50.065624 34.753124Q50.065624 34.01875 49.51875 33.6125Q48.971874 33.20625 47.596874 32.909374Q46.221874 32.6125 45.409374 32.20625Q44.6125 31.8 44.221874 31.2375Q43.846874 30.659374 43.846874 29.878124Q43.846874 28.58125 44.940624 27.690624Q46.034374 26.784374 47.753124 26.784374Q49.55 26.784374 50.659374 27.721874Q51.784374 28.64375 51.784374 30.08125L49.95625 30.08125Q49.95625 29.346874 49.33125 28.815624Q48.70625 28.26875 47.753124 28.26875Q46.753124 28.26875 46.190624 28.70625Q45.64375 29.128124 45.64375 29.83125Q45.64375 30.471874 46.159374 30.815624Q46.675 31.14375 48.034374 31.45625Q49.39375 31.753124 50.221874 32.175Q51.065624 32.58125 51.471874 33.175Q51.878124 33.76875 51.878124 34.6125Q51.878124 36.034374 50.7375 36.89375Q49.6125 37.753124 47.8 37.753124Q46.534374 37.753124 45.55 37.3Q44.58125 36.846874 44.01875 36.05Q43.471874 35.2375 43.471874 34.3L45.284374 34.3Q45.33125 35.20625 46.003124 35.7375Q46.690624 36.26875 47.8 36.26875Q48.83125 36.26875 49.440624 35.8625Q50.065624 35.440624 50.065624 34.753124ZM56.3625 24.425L56.3625 26.9875L58.346874 26.9875L58.346874 28.378124L56.3625 28.378124L56.3625 34.925Q56.3625 35.565624 56.628124 35.89375Q56.89375 36.20625 57.534374 36.20625Q57.846874 36.20625 58.39375 36.08125L58.39375 37.55Q57.675 37.753124 57.003124 37.753124Q55.8 37.753124 55.175 37.01875Q54.565624 36.284374 54.565624 34.925L54.565624 28.378124L52.64375 28.378124L52.64375 26.9875L54.565624 26.9875L54.565624 24.425L56.3625 24.425ZM60.4875 32.175Q60.4875 29.70625 61.628124 28.253124Q62.76875 26.784374 64.65938 26.784374Q66.59688 26.784374 67.675 28.159374L67.76875 26.9875L69.40938 26.9875L69.40938 37.3Q69.40938 39.346874 68.19063 40.51875Q66.9875 41.70625 64.925 41.70625Q63.784374 41.70625 62.690624 41.221874Q61.596874 40.7375 61.01875 39.878124L61.95625 38.8Q63.128124 40.2375 64.8 40.2375Q66.12813 40.2375 66.8625 39.4875Q67.59688 38.753124 67.59688 37.409374L67.59688 36.4875Q66.51875 37.753124 64.64375 37.753124Q62.784374 37.753124 61.628124 36.253124Q60.4875 34.753124 60.4875 32.175ZM62.3 32.378124Q62.3 34.175 63.034374 35.190624Q63.76875 36.20625 65.08125 36.20625Q66.8 36.20625 67.59688 34.659374L67.59688 29.83125Q66.76875 28.315624 65.1125 28.315624Q63.784374 28.315624 63.034374 29.346874Q62.3 30.378124 62.3 32.378124ZM77.01875 28.596874Q76.6125 28.534374 76.14375 28.534374Q74.3625 28.534374 73.72188 30.05L73.72188 37.55L71.925 37.55L71.925 26.9875L73.675 26.9875L73.70625 28.20625Q74.59688 26.784374 76.22188 26.784374Q76.75313 26.784374 77.01875 26.925L77.01875 28.596874ZM83.3 37.753124Q81.15938 37.753124 79.8 36.346874Q78.45625 34.925 78.45625 32.565624L78.45625 32.221874Q78.45625 30.659374 79.05 29.425Q79.65938 28.190624 80.7375 27.4875Q81.81563 26.784374 83.08125 26.784374Q85.14375 26.784374 86.28438 28.14375Q87.425 29.503124 87.425 32.034374L87.425 32.784374L80.26875 32.784374Q80.3 34.346874 81.175 35.315624Q82.05 36.26875 83.39375 36.26875Q84.3625 36.26875 85.01875 35.878124Q85.69063 35.4875 86.19063 34.846874L87.28438 35.70625Q85.95625 37.753124 83.3 37.753124ZM83.08125 28.26875Q81.9875 28.26875 81.2375 29.065624Q80.50313 29.8625 80.33125 31.3L85.6125 31.3L85.6125 31.159374Q85.53438 29.784374 84.8625 29.034374Q84.20625 28.26875 83.08125 28.26875ZM96.06563 34.753124Q96.06563 34.01875 95.51875 33.6125Q94.97188 33.20625 93.59688 32.909374Q92.22188 32.6125 91.40938 32.20625Q90.6125 31.8 90.22188 31.2375Q89.84688 30.659374 89.84688 29.878124Q89.84688 28.58125 90.94063 27.690624Q92.03438 26.784374 93.75313 26.784374Q95.55 26.784374 96.65938 27.721874Q97.78438 28.64375 97.78438 30.08125L95.95625 30.08125Q95.95625 29.346874 95.33125 28.815624Q94.70625 28.26875 93.75313 28.26875Q92.75313 28.26875 92.19063 28.70625Q91.64375 29.128124 91.64375 29.83125Q91.64375 30.471874 92.15938 30.815624Q92.675 31.14375 94.03438 31.45625Q95.39375 31.753124 96.22188 32.175Q97.06563 32.58125 97.47188 33.175Q97.87813 33.76875 97.87813 34.6125Q97.87813 36.034374 96.7375 36.89375Q95.6125 37.753124 93.8 37.753124Q92.53438 37.753124 91.55 37.3Q90.58125 36.846874 90.01875 36.05Q89.47188 35.2375 89.47188 34.3L91.28438 34.3Q91.33125 35.20625 92.00313 35.7375Q92.69063 36.26875 93.8 36.26875Q94.83125 36.26875 95.44063 35.8625Q96.06563 35.440624 96.06563 34.753124ZM107.3625 24.425L107.3625 26.9875L109.34688 26.9875L109.34688 28.378124L107.3625 28.378124L107.3625 34.925Q107.3625 35.565624 107.62813 35.89375Q107.89375 36.20625 108.53438 36.20625Q108.84688 36.20625 109.39375 36.08125L109.39375 37.55Q108.675 37.753124 108.00313 37.753124Q106.8 37.753124 106.175 37.01875Q105.56563 36.284374 105.56563 34.925L105.56563 28.378124L103.64375 28.378124L103.64375 26.9875L105.56563 26.9875L105.56563 24.425L107.3625 24.425ZM111.44063 32.175Q111.44063 30.6125 112.05 29.378124Q112.65938 28.128124 113.7375 27.45625Q114.83125 26.784374 116.2375 26.784374Q118.39375 26.784374 119.72188 28.284374Q121.06563 29.76875 121.06563 32.253124L121.06563 32.378124Q121.06563 33.925 120.47188 35.159374Q119.87813 36.378124 118.76875 37.065624Q117.675 37.753124 116.25313 37.753124Q114.1125 37.753124 112.76875 36.253124Q111.44063 34.753124 111.44063 32.3L111.44063 32.175ZM113.25313 32.378124Q113.25313 34.14375 114.06563 35.20625Q114.89375 36.26875 116.25313 36.26875Q117.62813 36.26875 118.44063 35.190624Q119.25313 34.1125 119.25313 32.175Q119.25313 30.425 118.425 29.346874Q117.59688 28.26875 116.2375 28.26875Q114.89375 28.26875 114.06563 29.33125Q113.25313 30.39375 113.25313 32.378124ZM136.05 33.83125L130.09688 33.83125L128.75313 37.55L126.83125 37.55L132.25313 23.33125L133.89375 23.33125L139.33125 37.55L137.40938 37.55L136.05 33.83125ZM130.65938 32.3L135.50313 32.3L133.08125 25.64375L130.65938 32.3ZM145.3 37.753124Q143.15938 37.753124 141.8 36.346874Q140.45625 34.925 140.45625 32.565624L140.45625 32.221874Q140.45625 30.659374 141.05 29.425Q141.65938 28.190624 142.7375 27.4875Q143.81563 26.784374 145.08125 26.784374Q147.14375 26.784374 148.28438 28.14375Q149.425 29.503124 149.425 32.034374L149.425 32.784374L142.26875 32.784374Q142.3 34.346874 143.175 35.315624Q144.05 36.26875 145.39375 36.26875Q146.3625 36.26875 147.01875 35.878124Q147.69063 35.4875 148.19063 34.846874L149.28438 35.70625Q147.95625 37.753124 145.3 37.753124ZM145.08125 28.26875Q143.9875 28.26875 143.2375 29.065624Q142.50313 29.8625 142.33125 31.3L147.6125 31.3L147.6125 31.159374Q147.53438 29.784374 146.8625 29.034374Q146.20625 28.26875 145.08125 28.26875ZM157.01875 28.596874Q156.6125 28.534374 156.14375 28.534374Q154.3625 28.534374 153.72188 30.05L153.72188 37.55L151.925 37.55L151.925 26.9875L153.675 26.9875L153.70625 28.20625Q154.59688 26.784374 156.22188 26.784374Q156.75313 26.784374 157.01875 26.925L157.01875 28.596874ZM158.44063 32.175Q158.44063 30.6125 159.05 29.378124Q159.65938 28.128124 160.7375 27.45625Q161.83125 26.784374 163.2375 26.784374Q165.39375 26.784374 166.72188 28.284374Q168.06563 29.76875 168.06563 32.253124L168.06563 32.378124Q168.06563 33.925 167.47188 35.159374Q166.87813 36.378124 165.76875 37.065624Q164.675 37.753124 163.25313 37.753124Q161.1125 37.753124 159.76875 36.253124Q158.44063 34.753124 158.44063 32.3L158.44063 32.175ZM160.25313 32.378124Q160.25313 34.14375 161.06563 35.20625Q161.89375 36.26875 163.25313 36.26875Q164.62813 36.26875 165.44063 35.190624Q166.25313 34.1125 166.25313 32.175Q166.25313 30.425 165.425 29.346874Q164.59688 28.26875 163.2375 28.26875Q161.89375 28.26875 161.06563 29.33125Q160.25313 30.39375 160.25313 32.378124ZM176.06563 34.753124Q176.06563 34.01875 175.51875 33.6125Q174.97188 33.20625 173.59688 32.909374Q172.22188 32.6125 171.40938 32.20625Q170.6125 31.8 170.22188 31.2375Q169.84688 30.659374 169.84688 29.878124Q169.84688 28.58125 170.94063 27.690624Q172.03438 26.784374 173.75313 26.784374Q175.55 26.784374 176.65938 27.721874Q177.78438 28.64375 177.78438 30.08125L175.95625 30.08125Q175.95625 29.346874 175.33125 28.815624Q174.70625 28.26875 173.75313 28.26875Q172.75313 28.26875 172.19063 28.70625Q171.64375 29.128124 171.64375 29.83125Q171.64375 30.471874 172.15938 30.815624Q172.675 31.14375 174.03438 31.45625Q175.39375 31.753124 176.22188 32.175Q177.06563 32.58125 177.47188 33.175Q177.87813 33.76875 177.87813 34.6125Q177.87813 36.034374 176.7375 36.89375Q175.6125 37.753124 173.8 37.753124Q172.53438 37.753124 171.55 37.3Q170.58125 36.846874 170.01875 36.05Q169.47188 35.2375 169.47188 34.3L171.28438 34.3Q171.33125 35.20625 172.00313 35.7375Q172.69063 36.26875 173.8 36.26875Q174.83125 36.26875 175.44063 35.8625Q176.06563 35.440624 176.06563 34.753124ZM188.84688 32.378124Q188.84688 34.8 187.7375 36.284374Q186.64375 37.753124 184.75313 37.753124Q182.83125 37.753124 181.72188 36.51875L181.72188 41.6125L179.925 41.6125L179.925 26.9875L181.56563 26.9875L181.65938 28.159374Q182.75313 26.784374 184.72188 26.784374Q186.62813 26.784374 187.7375 28.221874Q188.84688 29.659374 188.84688 32.221874L188.84688 32.378124ZM187.03438 32.175Q187.03438 30.39375 186.26875 29.3625Q185.51875 28.315624 184.19063 28.315624Q182.55 28.315624 181.72188 29.76875L181.72188 34.83125Q182.53438 36.26875 184.20625 36.26875Q185.50313 36.26875 186.26875 35.2375Q187.03438 34.20625 187.03438 32.175ZM192.87813 37.55L191.08125 37.55L191.08125 26.9875L192.87813 26.9875L192.87813 37.55ZM190.925 24.175Q190.925 23.7375 191.19063 23.440624Q191.47188 23.128124 191.9875 23.128124Q192.51875 23.128124 192.78438 23.440624Q193.06563 23.7375 193.06563 24.175Q193.06563 24.6125 192.78438 24.909374Q192.51875 25.20625 191.9875 25.20625Q191.47188 25.20625 191.19063 24.909374Q190.925 24.6125 190.925 24.175ZM198.8625 32.659374L197.7375 33.83125L197.7375 37.55L195.925 37.55L195.925 22.55L197.7375 22.55L197.7375 31.628124L198.70625 30.45625L201.9875 26.9875L204.19063 26.9875L200.08125 31.39375L204.675 37.55L202.55 37.55L198.8625 32.659374ZM210.3 37.753124Q208.15938 37.753124 206.8 36.346874Q205.45625 34.925 205.45625 32.565624L205.45625 32.221874Q205.45625 30.659374 206.05 29.425Q206.65938 28.190624 207.7375 27.4875Q208.81563 26.784374 210.08125 26.784374Q212.14375 26.784374 213.28438 28.14375Q214.425 29.503124 214.425 32.034374L214.425 32.784374L207.26875 32.784374Q207.3 34.346874 208.175 35.315624Q209.05 36.26875 210.39375 36.26875Q211.3625 36.26875 212.01875 35.878124Q212.69063 35.4875 213.19063 34.846874L214.28438 35.70625Q212.95625 37.753124 210.3 37.753124ZM210.08125 28.26875Q208.9875 28.26875 208.2375 29.065624Q207.50313 29.8625 207.33125 31.3L212.6125 31.3L212.6125 31.159374Q212.53438 29.784374 211.8625 29.034374Q211.20625 28.26875 210.08125 28.26875Z" fill-rule="nonzero"/></svg>